<svg width="7" height="4" viewBox="0 0 7 4" fill="none" xmlns="http://www.w3.org/2000/svg">
<path fill-rule="evenodd" clip-rule="evenodd" d="M0.0734383 0.572512C0.0966584 0.549237 0.124243 0.53077 0.154612 0.51817C0.184981 0.50557 0.217538 0.499084 0.250418 0.499084C0.283297 0.499084 0.315854 0.50557 0.346223 0.51817C0.376592 0.53077 0.404177 0.549237 0.427397 0.572512L3.25007 3.39529L6.07273 0.572512C6.09598 0.549274 6.12357 0.530841 6.15393 0.518265C6.1843 0.505688 6.21685 0.499215 6.24971 0.499215C6.28258 0.499215 6.31513 0.505688 6.34549 0.518265C6.37586 0.530841 6.40345 0.549274 6.42669 0.572512C6.44993 0.595751 6.46837 0.623338 6.48095 0.6537C6.49353 0.684062 6.5 0.716604 6.5 0.749467C6.5 0.782331 6.49353 0.814873 6.48095 0.845235C6.46837 0.875597 6.44993 0.903184 6.42669 0.926422L3.42704 3.92566C3.40382 3.94893 3.37624 3.9674 3.34587 3.98C3.3155 3.9926 3.28295 3.99908 3.25007 3.99908C3.21719 3.99908 3.18463 3.9926 3.15426 3.98C3.12389 3.9674 3.09631 3.94893 3.07309 3.92566L0.0734383 0.926422C0.0501594 0.903205 0.0316902 0.875625 0.0190884 0.84526C0.00648667 0.814895 0 0.782343 0 0.749467C0 0.716592 0.00648667 0.68404 0.0190884 0.653675C0.0316902 0.62331 0.0501594 0.595729 0.0734383 0.572512V0.572512Z" fill="white"/>
</svg>
