<svg width="33" height="27" viewBox="0 0 33 27" fill="none" xmlns="http://www.w3.org/2000/svg">
<path fill-rule="evenodd" clip-rule="evenodd" d="M1.01211 10.1996C1.12532 10.0861 1.25981 9.99606 1.40787 9.93462C1.55594 9.87318 1.71467 9.84155 1.87498 9.84155C2.03529 9.84155 2.19402 9.87318 2.34209 9.93462C2.49015 9.99606 2.62465 10.0861 2.73786 10.1996L16.5 23.9642L30.2621 10.1996C30.491 9.97076 30.8013 9.84219 31.125 9.84219C31.4486 9.84219 31.759 9.97076 31.9879 10.1996C32.2167 10.4285 32.3453 10.7388 32.3453 11.0625C32.3453 11.3861 32.2167 11.6965 31.9879 11.9254L17.3629 26.5504C17.2496 26.6639 17.1152 26.7539 16.9671 26.8153C16.819 26.8768 16.6603 26.9084 16.5 26.9084C16.3397 26.9084 16.1809 26.8768 16.0329 26.8153C15.8848 26.7539 15.7503 26.6639 15.6371 26.5504L1.01211 11.9254C0.898609 11.8121 0.80856 11.6777 0.74712 11.5296C0.685679 11.3815 0.654053 11.2228 0.654053 11.0625C0.654053 10.9022 0.685679 10.7434 0.74712 10.5954C0.80856 10.4473 0.898609 10.3128 1.01211 10.1996Z" fill="white"/>
<path fill-rule="evenodd" clip-rule="evenodd" d="M1.01211 0.449606C1.12532 0.336108 1.25981 0.24606 1.40787 0.18462C1.55594 0.123179 1.71467 0.0915527 1.87498 0.0915527C2.03529 0.0915527 2.19402 0.123179 2.34209 0.18462C2.49015 0.24606 2.62465 0.336108 2.73786 0.449606L16.5 14.2142L30.2621 0.449606C30.3754 0.336292 30.5099 0.246406 30.658 0.185081C30.806 0.123756 30.9647 0.092192 31.125 0.092192C31.2852 0.092192 31.4439 0.123756 31.592 0.185081C31.74 0.246406 31.8745 0.336292 31.9879 0.449606C32.1012 0.562921 32.1911 0.697445 32.2524 0.845497C32.3137 0.993549 32.3453 1.15223 32.3453 1.31248C32.3453 1.47273 32.3137 1.63141 32.2524 1.77947C32.1911 1.92752 32.1012 2.06204 31.9879 2.17536L17.3629 16.8004C17.2496 16.9139 17.1152 17.0039 16.9671 17.0653C16.819 17.1268 16.6603 17.1584 16.5 17.1584C16.3397 17.1584 16.1809 17.1268 16.0329 17.0653C15.8848 17.0039 15.7503 16.9139 15.6371 16.8004L1.01211 2.17536C0.898609 2.06215 0.80856 1.92765 0.74712 1.77959C0.685679 1.63152 0.654053 1.47279 0.654053 1.31248C0.654053 1.15217 0.685679 0.993441 0.74712 0.845374C0.80856 0.697308 0.898609 0.562818 1.01211 0.449606Z" fill="white"/>
</svg>
