<svg width="26" height="26" viewBox="0 0 26 26" fill="none" xmlns="http://www.w3.org/2000/svg">
<path d="M24.9293 8.07328C24.9159 7.06344 24.7268 6.06364 24.3707 5.11861C24.0618 4.32148 23.5901 3.59754 22.9856 2.99305C22.3811 2.38856 21.6571 1.91681 20.86 1.60794C19.9271 1.25775 18.9416 1.0684 17.9453 1.04794C16.6627 0.990609 16.256 0.974609 13 0.974609C9.744 0.974609 9.32667 0.974609 8.05334 1.04794C7.05755 1.06855 6.07247 1.2579 5.14 1.60794C4.34275 1.9166 3.6187 2.38827 3.01418 2.99279C2.40966 3.5973 1.93799 4.32135 1.62934 5.11861C1.27844 6.05079 1.0895 7.03609 1.07067 8.03194C1.01334 9.31594 0.996002 9.72261 0.996002 12.9786C0.996002 16.2346 0.996002 16.6506 1.07067 17.9253C1.09067 18.9226 1.27867 19.9066 1.62934 20.8413C1.93851 21.6383 2.41053 22.362 3.01525 22.9663C3.61997 23.5706 4.34409 24.042 5.14134 24.3506C6.07125 24.7149 7.0565 24.9178 8.05467 24.9506C9.33867 25.0079 9.74534 25.0253 13.0013 25.0253C16.2573 25.0253 16.6747 25.0253 17.948 24.9506C18.9442 24.931 19.9298 24.7421 20.8627 24.3919C21.6596 24.0827 22.3833 23.6108 22.9878 23.0064C23.5922 22.402 24.0641 21.6782 24.3733 20.8813C24.724 19.9479 24.912 18.9639 24.932 17.9653C24.9893 16.6826 25.0067 16.2759 25.0067 13.0186C25.004 9.76261 25.004 9.34928 24.9293 8.07328ZM12.992 19.1359C9.58667 19.1359 6.828 16.3773 6.828 12.9719C6.828 9.56661 9.58667 6.80794 12.992 6.80794C14.6268 6.80794 16.1946 7.45736 17.3506 8.61334C18.5066 9.76931 19.156 11.3371 19.156 12.9719C19.156 14.6067 18.5066 16.1746 17.3506 17.3306C16.1946 18.4865 14.6268 19.1359 12.992 19.1359ZM19.4013 8.01728C18.6053 8.01728 17.964 7.37461 17.964 6.57994C17.964 6.39128 18.0012 6.20446 18.0734 6.03016C18.1456 5.85585 18.2514 5.69747 18.3848 5.56407C18.5182 5.43066 18.6766 5.32484 18.8509 5.25264C19.0252 5.18044 19.212 5.14328 19.4007 5.14328C19.5893 5.14328 19.7762 5.18044 19.9505 5.25264C20.1248 5.32484 20.2831 5.43066 20.4165 5.56407C20.55 5.69747 20.6558 5.85585 20.728 6.03016C20.8002 6.20446 20.8373 6.39128 20.8373 6.57994C20.8373 7.37461 20.1947 8.01728 19.4013 8.01728Z" fill="white"/>
<path d="M12.992 16.9763C15.2034 16.9763 16.996 15.1836 16.996 12.9723C16.996 10.7609 15.2034 8.96826 12.992 8.96826C10.7807 8.96826 8.98801 10.7609 8.98801 12.9723C8.98801 15.1836 10.7807 16.9763 12.992 16.9763Z" fill="white"/>
</svg>
