<svg width="0" height="0" class="hidden">
  <symbol fill="none" xmlns="http://www.w3.org/2000/svg" viewBox="0 0 29 20" id="yt">
    <path d="M27.417 3.592a3.25 3.25 0 00-.894-1.482 3.558 3.558 0 00-1.561-.866C22.771.667 13.993.667 13.993.667a89.395 89.395 0 00-10.955.548 3.687 3.687 0 00-1.561.887A3.38 3.38 0 00.569 3.59 33.939 33.939 0 000 10a33.876 33.876 0 00.57 6.409c.16.559.47 1.069.903 1.48.433.412.972.71 1.565.867 2.22.577 10.955.577 10.955.577a89.58 89.58 0 0010.969-.549 3.558 3.558 0 001.561-.865c.432-.412.739-.924.893-1.482.402-2.113.598-4.26.584-6.41.03-2.16-.165-4.318-.583-6.437zM11.202 13.995V6.007L18.506 10l-7.304 3.994z" fill="#fff"></path>
  </symbol>
  <symbol fill="none" xmlns="http://www.w3.org/2000/svg" viewBox="0 0 33 27" id="down">
    <path fill-rule="evenodd" clip-rule="evenodd" d="M1.012 10.2a1.219 1.219 0 011.726 0L16.5 23.964 30.262 10.2a1.22 1.22 0 011.726 1.725L17.363 26.55a1.219 1.219 0 01-1.726 0L1.012 11.925a1.22 1.22 0 010-1.725z" fill="#fff"></path>
    <path fill-rule="evenodd" clip-rule="evenodd" d="M1.012.45a1.219 1.219 0 011.726 0L16.5 14.214 30.262.45a1.22 1.22 0 111.726 1.725L17.363 16.8a1.219 1.219 0 01-1.726 0L1.012 2.175a1.219 1.219 0 010-1.725z" fill="#fff"></path>
  </symbol>
  <symbol fill="none" xmlns="http://www.w3.org/2000/svg" viewBox="0 0 24 24" id="fb">
    <path d="M23.04 0H.96A.959.959 0 000 .96v22.08c0 .531.429.96.96.96h22.08c.531 0 .96-.429.96-.96V.96a.959.959 0 00-.96-.96zm-2.772 7.005h-1.917c-1.503 0-1.794.714-1.794 1.764v2.313h3.588l-.468 3.621h-3.12V24h-3.741v-9.294H9.687v-3.624h3.129v-2.67c0-3.099 1.893-4.788 4.659-4.788 1.326 0 2.463.099 2.796.144v3.237h-.003z" fill="#fff"></path>
  </symbol>
  <symbol fill="none" xmlns="http://www.w3.org/2000/svg" viewBox="0 0 26 26" id="inst">
    <path d="M24.93 8.073a8.707 8.707 0 00-.56-2.954 6.147 6.147 0 00-3.51-3.511 8.808 8.808 0 00-2.915-.56C16.663.99 16.256.975 13 .975c-3.256 0-3.673 0-4.947.073-.995.02-1.98.21-2.913.56a6.143 6.143 0 00-3.51 3.51 8.738 8.738 0 00-.56 2.914c-.057 1.284-.074 1.69-.074 4.947 0 3.256 0 3.672.075 4.946.02.998.208 1.982.558 2.916a6.147 6.147 0 003.512 3.51 8.79 8.79 0 002.914.6c1.284.057 1.69.074 4.946.074s3.674 0 4.947-.074a8.785 8.785 0 002.915-.56 6.154 6.154 0 003.51-3.51 8.78 8.78 0 00.559-2.916c.057-1.282.075-1.69.075-4.946-.003-3.256-.003-3.67-.078-4.946zM12.991 19.136a6.163 6.163 0 01-6.164-6.164A6.163 6.163 0 0117.35 8.613a6.164 6.164 0 01-4.359 10.523zm6.41-11.119a1.435 1.435 0 01-1.017-2.453A1.437 1.437 0 1119.4 8.017z" fill="#fff"></path>
    <path d="M12.992 16.976a4.004 4.004 0 100-8.008 4.004 4.004 0 000 8.008z" fill="#fff"></path>
  </symbol>
  <symbol fill="none" xmlns="http://www.w3.org/2000/svg" viewBox="0 0 43 41" id="star">
    <path d="M21.5 0l5.052 15.547h16.347l-13.225 9.609 5.051 15.547L21.5 31.094 8.275 40.703l5.051-15.547L.101 15.547h16.347L21.5 0z" fill="#F24C4C"></path>
  </symbol>
</svg>