<svg width="29" height="20" viewBox="0 0 29 20" fill="none" xmlns="http://www.w3.org/2000/svg">
<path d="M27.4167 3.59175C27.2581 3.02619 26.9493 2.51415 26.523 2.11008C26.0847 1.69359 25.5474 1.39566 24.962 1.24442C22.771 0.666918 13.993 0.666918 13.993 0.666918C10.3335 0.625283 6.67499 0.808405 3.03799 1.21525C2.45254 1.37767 1.91631 1.68225 1.47699 2.10192C1.04532 2.51725 0.732654 3.02942 0.569321 3.59058C0.176963 5.70429 -0.0136717 7.85049 -1.23748e-05 10.0003C-0.0140124 12.1481 0.176154 14.2936 0.569321 16.4099C0.729154 16.9687 1.04065 17.4786 1.47349 17.8904C1.90632 18.3022 2.44532 18.5998 3.03799 18.7572C5.25815 19.3336 13.993 19.3336 13.993 19.3336C17.6571 19.3753 21.3203 19.1922 24.962 18.7852C25.5474 18.634 26.0847 18.3361 26.523 17.9196C26.9547 17.5077 27.2615 16.9956 27.4155 16.4379C27.8181 14.325 28.0138 12.1779 28 10.0271C28.0303 7.86712 27.8348 5.70991 27.4167 3.59058V3.59175ZM11.2023 13.9949V6.00675L18.5057 10.0014L11.2023 13.9949Z" fill="white"/>
</svg>
